<?xml version="1.0" encoding="utf-8"?>
<svg viewBox="180.0006 74.8882 43.6869 39.4028" xmlns="http://www.w3.org/2000/svg">
  <defs>
    <clipPath id="9ecf10eaf8">
      <path d="M 206 74.972656 L 224.027344 74.972656 L 224.027344 93 L 206 93 Z M 206 74.972656 " clip-rule="nonzero"/>
    </clipPath>
  </defs>
  <g style="transform-origin: 193.162px 94.702px;" transform="matrix(1.057613015175, 0, 0, 1, 11.334362024656, -10)">
    <g fill="#474747" fill-opacity="0.4">
      <g transform="translate(170.593307, 94.449691)">
        <g>
          <path d="M 4.5625 -9.015625 C 5.351562 -9.015625 6.113281 -8.816406 6.84375 -8.421875 C 7.570312 -8.023438 8.144531 -7.457031 8.5625 -6.71875 C 8.976562 -5.988281 9.1875 -5.210938 9.1875 -4.390625 C 9.1875 -3.585938 8.984375 -2.820312 8.578125 -2.09375 C 8.171875 -1.375 7.597656 -0.804688 6.859375 -0.390625 C 6.128906 0.015625 5.363281 0.21875 4.5625 0.21875 C 3.757812 0.21875 2.992188 0.015625 2.265625 -0.390625 C 1.535156 -0.804688 0.96875 -1.375 0.5625 -2.09375 C 0.15625 -2.820312 -0.046875 -3.585938 -0.046875 -4.390625 C -0.046875 -5.210938 0.160156 -5.988281 0.578125 -6.71875 C 0.992188 -7.457031 1.5625 -8.023438 2.28125 -8.421875 C 3.007812 -8.816406 3.769531 -9.015625 4.5625 -9.015625 Z M 4.5625 -8.109375 C 3.925781 -8.109375 3.316406 -7.945312 2.734375 -7.625 C 2.148438 -7.3125 1.691406 -6.859375 1.359375 -6.265625 C 1.023438 -5.671875 0.859375 -5.046875 0.859375 -4.390625 C 0.859375 -3.742188 1.019531 -3.125 1.34375 -2.53125 C 1.675781 -1.945312 2.132812 -1.492188 2.71875 -1.171875 C 3.3125 -0.847656 3.925781 -0.6875 4.5625 -0.6875 C 5.21875 -0.6875 5.835938 -0.847656 6.421875 -1.171875 C 7.003906 -1.492188 7.457031 -1.945312 7.78125 -2.53125 C 8.113281 -3.125 8.28125 -3.742188 8.28125 -4.390625 C 8.28125 -5.046875 8.109375 -5.671875 7.765625 -6.265625 C 7.429688 -6.859375 6.972656 -7.3125 6.390625 -7.625 C 5.804688 -7.945312 5.195312 -8.109375 4.5625 -8.109375 Z M 2.609375 -1.921875 L 2.609375 -6.828125 L 3.59375 -6.828125 C 4.53125 -6.828125 5.050781 -6.820312 5.15625 -6.8125 C 5.488281 -6.789062 5.742188 -6.726562 5.921875 -6.625 C 6.109375 -6.519531 6.257812 -6.363281 6.375 -6.15625 C 6.5 -5.945312 6.5625 -5.707031 6.5625 -5.4375 C 6.5625 -5.082031 6.445312 -4.78125 6.21875 -4.53125 C 5.988281 -4.28125 5.664062 -4.128906 5.25 -4.078125 C 5.40625 -4.015625 5.519531 -3.953125 5.59375 -3.890625 C 5.675781 -3.828125 5.785156 -3.703125 5.921875 -3.515625 L 6.296875 -2.90625 L 6.859375 -1.921875 L 5.640625 -1.921875 L 5.234375 -2.734375 C 4.953125 -3.265625 4.71875 -3.597656 4.53125 -3.734375 C 4.351562 -3.867188 4.125 -3.9375 3.84375 -3.9375 L 3.59375 -3.9375 L 3.59375 -1.921875 Z M 3.59375 -4.71875 L 4 -4.71875 C 4.570312 -4.71875 4.925781 -4.738281 5.0625 -4.78125 C 5.195312 -4.832031 5.304688 -4.910156 5.390625 -5.015625 C 5.472656 -5.117188 5.515625 -5.242188 5.515625 -5.390625 C 5.515625 -5.523438 5.472656 -5.644531 5.390625 -5.75 C 5.316406 -5.851562 5.207031 -5.925781 5.0625 -5.96875 C 4.925781 -6.019531 4.570312 -6.046875 4 -6.046875 L 3.59375 -6.046875 Z M 3.59375 -4.71875 "/>
        </g>
      </g>
    </g>
    <g fill="#474747" fill-opacity="1">
      <g transform="translate(170.047477, 93.903854)">
        <g>
          <path d="M 4.5625 -9.015625 C 5.351562 -9.015625 6.113281 -8.816406 6.84375 -8.421875 C 7.570312 -8.023438 8.144531 -7.457031 8.5625 -6.71875 C 8.976562 -5.988281 9.1875 -5.210938 9.1875 -4.390625 C 9.1875 -3.585938 8.984375 -2.820312 8.578125 -2.09375 C 8.171875 -1.375 7.597656 -0.804688 6.859375 -0.390625 C 6.128906 0.015625 5.363281 0.21875 4.5625 0.21875 C 3.757812 0.21875 2.992188 0.015625 2.265625 -0.390625 C 1.535156 -0.804688 0.96875 -1.375 0.5625 -2.09375 C 0.15625 -2.820312 -0.046875 -3.585938 -0.046875 -4.390625 C -0.046875 -5.210938 0.160156 -5.988281 0.578125 -6.71875 C 0.992188 -7.457031 1.5625 -8.023438 2.28125 -8.421875 C 3.007812 -8.816406 3.769531 -9.015625 4.5625 -9.015625 Z M 4.5625 -8.109375 C 3.925781 -8.109375 3.316406 -7.945312 2.734375 -7.625 C 2.148438 -7.3125 1.691406 -6.859375 1.359375 -6.265625 C 1.023438 -5.671875 0.859375 -5.046875 0.859375 -4.390625 C 0.859375 -3.742188 1.019531 -3.125 1.34375 -2.53125 C 1.675781 -1.945312 2.132812 -1.492188 2.71875 -1.171875 C 3.3125 -0.847656 3.925781 -0.6875 4.5625 -0.6875 C 5.21875 -0.6875 5.835938 -0.847656 6.421875 -1.171875 C 7.003906 -1.492188 7.457031 -1.945312 7.78125 -2.53125 C 8.113281 -3.125 8.28125 -3.742188 8.28125 -4.390625 C 8.28125 -5.046875 8.109375 -5.671875 7.765625 -6.265625 C 7.429688 -6.859375 6.972656 -7.3125 6.390625 -7.625 C 5.804688 -7.945312 5.195312 -8.109375 4.5625 -8.109375 Z M 2.609375 -1.921875 L 2.609375 -6.828125 L 3.59375 -6.828125 C 4.53125 -6.828125 5.050781 -6.820312 5.15625 -6.8125 C 5.488281 -6.789062 5.742188 -6.726562 5.921875 -6.625 C 6.109375 -6.519531 6.257812 -6.363281 6.375 -6.15625 C 6.5 -5.945312 6.5625 -5.707031 6.5625 -5.4375 C 6.5625 -5.082031 6.445312 -4.78125 6.21875 -4.53125 C 5.988281 -4.28125 5.664062 -4.128906 5.25 -4.078125 C 5.40625 -4.015625 5.519531 -3.953125 5.59375 -3.890625 C 5.675781 -3.828125 5.785156 -3.703125 5.921875 -3.515625 L 6.296875 -2.90625 L 6.859375 -1.921875 L 5.640625 -1.921875 L 5.234375 -2.734375 C 4.953125 -3.265625 4.71875 -3.597656 4.53125 -3.734375 C 4.351562 -3.867188 4.125 -3.9375 3.84375 -3.9375 L 3.59375 -3.9375 L 3.59375 -1.921875 Z M 3.59375 -4.71875 L 4 -4.71875 C 4.570312 -4.71875 4.925781 -4.738281 5.0625 -4.78125 C 5.195312 -4.832031 5.304688 -4.910156 5.390625 -5.015625 C 5.472656 -5.117188 5.515625 -5.242188 5.515625 -5.390625 C 5.515625 -5.523438 5.472656 -5.644531 5.390625 -5.75 C 5.316406 -5.851562 5.207031 -5.925781 5.0625 -5.96875 C 4.925781 -6.019531 4.570312 -6.046875 4 -6.046875 L 3.59375 -6.046875 Z M 3.59375 -4.71875 "/>
        </g>
      </g>
    </g>
  </g>
  <path fill="#61c2ab" d="M 205.292969 82.417969 C 204.84375 82.417969 204.421875 82.59375 204.109375 82.90625 L 187.015625 100.003906 C 187.011719 100.035156 186.996094 100.070312 186.96875 100.097656 C 183.761719 103.304688 183.761719 108.523438 186.96875 111.726562 C 190.175781 114.933594 195.394531 114.933594 198.601562 111.726562 C 198.625 111.703125 198.660156 111.6875 198.695312 111.683594 L 215.789062 94.589844 C 216.105469 94.273438 216.277344 93.855469 216.277344 93.40625 C 216.277344 92.957031 216.105469 92.539062 215.789062 92.222656 L 206.476562 82.90625 C 206.160156 82.59375 205.742188 82.417969 205.292969 82.417969 Z M 205.292969 82.417969 " fill-opacity="1" fill-rule="nonzero" style="transform-origin: 194.496px 94.702px;"/>
  <path fill="#e8e3e3" d="M 223.179688 84.085938 L 214.613281 75.519531 L 207.070312 83.0625 L 215.636719 91.628906 Z M 212.113281 85.144531 C 212.074219 85.144531 212.03125 85.128906 212.003906 85.097656 L 210.136719 83.230469 C 210.078125 83.171875 210.078125 83.074219 210.136719 83.011719 L 212.003906 81.144531 C 212.03125 81.117188 212.074219 81.101562 212.113281 81.101562 C 212.15625 81.101562 212.195312 81.117188 212.222656 81.144531 L 214.089844 83.011719 C 214.148438 83.074219 214.148438 83.171875 214.089844 83.230469 L 212.222656 85.097656 C 212.195312 85.128906 212.15625 85.144531 212.113281 85.144531 Z M 213.675781 86.550781 L 215.539062 84.683594 C 215.597656 84.625 215.703125 84.625 215.761719 84.683594 L 217.625 86.550781 C 217.6875 86.609375 217.6875 86.710938 217.625 86.769531 L 215.761719 88.636719 C 215.730469 88.664062 215.691406 88.683594 215.648438 88.683594 C 215.609375 88.683594 215.570312 88.664062 215.539062 88.636719 L 213.675781 86.769531 C 213.613281 86.710938 213.613281 86.609375 213.675781 86.550781 Z M 213.675781 86.550781 " fill-opacity="1" fill-rule="nonzero" style="transform-origin: 194.496px 94.7019px;"/>
  <path fill="#e8e3e3" d="M 212.113281 84.773438 L 210.464844 83.125 L 212.109375 81.476562 L 213.757812 83.125 Z M 212.113281 84.773438 " fill-opacity="1" fill-rule="nonzero" style="transform-origin: 194.496px 94.702px;"/>
  <path fill="#e8e3e3" d="M 215.652344 85.011719 L 217.296875 86.660156 L 215.652344 88.304688 L 214.003906 86.660156 Z M 215.652344 85.011719 " fill-opacity="1" fill-rule="nonzero" style="transform-origin: 194.496px 94.702px;"/>
  <g clip-path="url(#9ecf10eaf8)" style="transform-origin: 194.496px 94.702px;">
    <path stroke-linecap="round" transform="matrix(0.31493, 0, 0, 0.31493, 183.969908, 74.640641)" fill="none" stroke-linejoin="round" d="M 73.871868 26.444318 L 98.220037 2.09615 L 126.115621 29.991734 L 101.755049 54.339903 " stroke="#333333" stroke-width="2" stroke-opacity="1" stroke-miterlimit="10"/>
  </g>
  <path stroke-linecap="round" fill="none" stroke-linejoin="round" d="M 93.109774 23.827169 L 96.210662 26.928057 L 90.281765 32.856954 L 84.352868 26.928057 L 90.281765 21.011564 " stroke="#333333" stroke-width="2" stroke-opacity="1" stroke-miterlimit="10" style="transform-origin: 33.4244px 63.7012px;" transform="matrix(0.314930051565, 0, 0, 0.314930051565, 161.071670896473, 31.000904825937)"/>
  <path stroke-linecap="round" fill="none" stroke-linejoin="round" d="M 104.334987 35.064786 L 107.435875 38.165673 L 101.519381 44.09457 L 95.590484 38.165673 L 101.519381 32.236776 " stroke="#333333" stroke-width="2" stroke-opacity="1" stroke-miterlimit="10" style="transform-origin: 33.4241px 63.7016px;" transform="matrix(0.314930051565, 0, 0, 0.314930051565, 161.072101847497, 31.000177888816)"/>
  <path stroke-linecap="round" fill="none" stroke-linejoin="round" d="M 10.092814 80.486586 C -0.301361 90.880761 -0.301361 107.724782 10.092814 118.106553 C 20.486989 128.500728 37.33101 128.500728 47.725185 118.106553 L 47.799606 118.193378 L 102.300805 63.692179 C 104.570654 61.434733 104.570654 57.738475 102.300805 55.481029 L 72.730741 25.898562 C 70.473295 23.641116 66.777037 23.641116 64.519591 25.898562 L 10.018392 80.399761 " stroke="#333333" stroke-width="2" stroke-opacity="1" stroke-miterlimit="10" style="transform-origin: 33.4246px 63.7009px;" transform="matrix(0.314930051565, 0, 0, 0.314930051565, 161.071548069753, 31.001095178135)"/>
  <path stroke-linecap="round" fill="none" stroke-linejoin="round" d="M 66.15686 34.159327 L 68.401902 31.914284 M 68.401902 31.914284 L 96.285083 59.797465 L 44.016523 112.078428 C 43.569995 112.413324 43.123467 112.78543 42.71415 113.194748 C 35.073563 120.835334 22.645206 120.835334 15.017023 113.194748 C 7.364033 105.554161 7.376436 93.125804 15.017023 85.49762 C 15.42634 85.088303 15.798447 84.641775 16.133343 84.182844 L 59.471346 40.84484 " stroke="#333333" stroke-width="2" stroke-opacity="1" stroke-miterlimit="10" style="transform-origin: 33.4239px 63.7006px;" transform="matrix(0.314930051565, 0, 0, 0.314930051565, 161.072258226348, 31.001424333696)"/>
  <path stroke-linecap="round" fill="none" stroke-linejoin="round" d="M 66.380124 60.963398 C 68.129024 62.724702 68.129024 65.589922 66.380124 67.351227 C 64.606416 69.112531 61.7536 69.112531 59.992296 67.351227 C 58.230991 65.589922 58.230991 62.724702 59.992296 60.963398 C 61.7536 59.202094 64.606416 59.202094 66.380124 60.963398 Z M 66.380124 60.963398 " stroke="#333333" stroke-width="2" stroke-opacity="1" stroke-miterlimit="10" style="transform-origin: 33.4243px 63.701px;" transform="matrix(0.314930051565, 0, 0, 0.314930051565, 161.071959377755, 31.001022847206)"/>
  <path stroke-linecap="round" fill="none" stroke-linejoin="round" d="M 62.435795 83.078928 C 62.435795 83.550263 62.34897 83.996791 62.162917 84.430915 C 61.989267 84.865039 61.728793 85.249549 61.393897 85.584445 C 61.071404 85.919341 60.686894 86.167412 60.25277 86.353465 C 59.818646 86.527115 59.359714 86.626343 58.88838 86.626343 C 58.417045 86.626343 57.970517 86.527115 57.536393 86.353465 C 57.102268 86.167412 56.717758 85.919341 56.382862 85.584445 C 56.047967 85.249549 55.787492 84.865039 55.613842 84.430915 C 55.427789 83.996791 55.340964 83.550263 55.340964 83.078928 C 55.340964 82.607593 55.427789 82.148662 55.613842 81.714538 C 55.787492 81.280413 56.047967 80.895903 56.382862 80.561007 C 56.717758 80.238515 57.102268 79.97804 57.536393 79.791987 C 57.970517 79.618338 58.417045 79.531513 58.88838 79.531513 C 59.359714 79.531513 59.818646 79.618338 60.25277 79.791987 C 60.686894 79.97804 61.071404 80.238515 61.393897 80.561007 C 61.728793 80.895903 61.989267 81.280413 62.162917 81.714538 C 62.34897 82.148662 62.435795 82.607593 62.435795 83.078928 Z M 62.435795 83.078928 " stroke="#333333" stroke-width="2" stroke-opacity="1" stroke-miterlimit="10" style="transform-origin: 33.424px 63.7006px;" transform="matrix(0.314930051565, 0, 0, 0.314930051565, 161.072144082067, 31.001393605509)"/>
  <path stroke-linecap="round" fill="none" stroke-linejoin="round" d="M 59.992296 67.351227 L 38.149644 89.181475 " stroke="#333333" stroke-width="2" stroke-opacity="1" stroke-miterlimit="10" style="transform-origin: 33.4243px 63.701px;" transform="matrix(0.314930051565, 0, 0, 0.314930051565, 161.071953729869, 31.000977070838)"/>
  <path stroke-linecap="round" fill="none" stroke-linejoin="round" d="M 35.183441 72.177008 L 42.278954 72.183772 L 42.272191 79.279286 L 35.176677 79.272522 Z M 35.183441 72.177008 " stroke="#333333" stroke-width="2" stroke-opacity="1" stroke-miterlimit="10" style="transform-origin: 43.481px 63.472px;" transform="matrix(0.222749978304, -0.222623974085, 0.222623974085, 0.222749978304, 151.015297606311, 31.230043000851)"/>
  <path stroke-linecap="round" fill="none" stroke-linejoin="round" d="M 57.995324 68.504757 L 47.030586 68.504757 L 42.155991 73.081667 " stroke="#333333" stroke-width="2" stroke-opacity="1" stroke-miterlimit="10" style="transform-origin: 33.4243px 63.701px;" transform="matrix(0.314930051565, 0, 0, 0.314930051565, 161.071956343205, 31.001033089934)"/>
  <path stroke-linecap="round" fill="none" stroke-linejoin="round" d="M 57.499182 67.996211 L 57.499182 78.99816 " stroke="#333333" stroke-width="2" stroke-opacity="1" stroke-miterlimit="10" style="transform-origin: 57.4992px 63.7006px;" transform="matrix(0.314929120586, -1.03333e-7, -7.48226e-7, 0.314930050586, 144.578960801751, 31.001267899653)"/>
</svg>
